<?xml version="1.0" encoding="UTF-8" standalone="no"?>
<!-- Created with Inkscape (http://www.inkscape.org/) -->

<svg
   xmlns:dc="http://purl.org/dc/elements/1.1/"
   xmlns:cc="http://creativecommons.org/ns#"
   xmlns:rdf="http://www.w3.org/1999/02/22-rdf-syntax-ns#"
   xmlns:svg="http://www.w3.org/2000/svg"
   xmlns="http://www.w3.org/2000/svg"
   xmlns:sodipodi="http://sodipodi.sourceforge.net/DTD/sodipodi-0.dtd"
   xmlns:inkscape="http://www.inkscape.org/namespaces/inkscape"
   width="170"
   height="174"
   id="svg3807"
   version="1.1"
   inkscape:version="0.48.2 r9819"
   sodipodi:docname="base.svg">
  <defs
     id="defs3809">
    <filter
       inkscape:collect="always"
       id="filter4330">
      <feGaussianBlur
         inkscape:collect="always"
         stdDeviation="5.9337329"
         id="feGaussianBlur4332" />
    </filter>
  </defs>
  <sodipodi:namedview
     id="base"
     pagecolor="#ffffff"
     bordercolor="#666666"
     borderopacity="1.0"
     inkscape:pageopacity="0.0"
     inkscape:pageshadow="2"
     inkscape:zoom="1"
     inkscape:cx="219"
     inkscape:cy="280"
     inkscape:document-units="px"
     inkscape:current-layer="layer1"
     showgrid="false"
     inkscape:window-width="1920"
     inkscape:window-height="1060"
     inkscape:window-x="-8"
     inkscape:window-y="-8"
     inkscape:window-maximized="1" />
  <metadata
     id="metadata3812">
    <rdf:RDF>
      <cc:Work
         rdf:about="">
        <dc:format>image/svg+xml</dc:format>
        <dc:type
           rdf:resource="http://purl.org/dc/dcmitype/StillImage" />
        <dc:title></dc:title>
      </cc:Work>
    </rdf:RDF>
  </metadata>
  <g
     inkscape:label="Layer 1"
     inkscape:groupmode="layer"
     id="layer1"
     transform="translate(0,-878.36192)">
    <path
       style="fill:#ff8080;stroke:none;filter:url(#filter4330)"
       d="m 85.993824,882.59039 c 9.61455,-2.05609 20.875236,-1.98813 33.798016,1.49109 12.92277,3.4792 11.92871,11.92871 18.63862,18.88713 6.7099,6.95841 29.07623,20.87524 31.31286,57.65544 2.23664,36.7802 -7.95247,61.13465 -29.57326,69.83265 -21.62079,8.6981 -47.714846,21.3723 -57.158416,21.8694 -9.44356,0.497 -34.295041,-4.2248 -39.762371,-8.6981 -5.46733,-4.4732 -9.19505,-14.9109 -18.88713,-26.8396 C 14.670063,1004.8597 -3.9685475,979.7597 0.75323252,949.6894 5.4750125,919.6191 29.083923,906.69633 34.302733,901.72603 c 5.21882,-4.9703 12.77351,-10.65645 20.62673,-12.42574 7.853231,-1.7693 21.449821,-4.65382 31.064361,-6.7099 z"
       id="path3012"
       inkscape:connector-curvature="0"
       sodipodi:nodetypes="zssssssssszz" />
  </g>
</svg>
